# xmcd
#
# Track frame offsets: 
#        150
#        19210
#        47302
#        64147
#        96390
#        120390
#        137112
#        158147
#        188357
#
# Disc length: 2692 seconds
#
# Revision: 5
# Processed by: cddbd v1.5.2PL0 Copyright (c) Steve Scherf et al.
# Submitted via: ExactAudioCopy v0.99pb5
#
DISCID=6d0a8209
DTITLE=Son Seals - Live and Burning
DYEAR=1978
DGENRE=Blues
TTITLE0=I Can't Hold Out
TTITLE1=Blue Shadows Falling
TTITLE2=Funky Bitch
TTITLE3=The Woman I Love
TTITLE4=Help Me, Somebody
TTITLE5=She's Fine
TTITLE6=Call My Job
TTITLE7=Last Night
TTITLE8=Hot Sauce
EXTD=YEAR: 1992
EXTT0=
EXTT1=
EXTT2=
EXTT3=
EXTT4=
EXTT5=
EXTT6=
EXTT7=
EXTT8=
PLAYORDER=
